# xmcd CD database file
#
# Track frame offsets:
#	150
#	19840
#	40585
#	61070
#	78930
#	101632
#	119977
#	144832
#	161310
#	183305
#	220927
#
# Disc length: 4440 seconds
#
# Revision: 0
# Processed by: cddbd v1.5.1PL0 Copyright (c) Steve Scherf et al.
# Submitted via: CDex 1.51
#
DISCID=8b11560b
DTITLE=SUPER BELL"Z - The Very Best of MOTOR MAN Disc1
DYEAR=2005
DGENRE=Techno
TTITLE0=MOTER MAN (秋葉原〜南浦和)
TTITLE1=MOTOR MAN 大阪環状線
TTITLE2=MOTER MAN 仙石線
TTITLE3=MOTOR MAN 京浜急行VVVF
TTITLE4=MOTOR MAN N∀GOYA 空港特急ミュースカイ
TTITLE5=MOTER MAN 中央線ノンスットプ特快Mix
TTITLE6=MOTER MAN 埼京線WATERFRONT
TTITLE7=MOTOR MAN SOTETSU！！
TTITLE8=MOTOR MAN 江ノ電
TTITLE9=MOTER MAN 武蔵野線”Over Rev MT54”
TTITLE10=CCCD
EXTD=YEAR: 2005
EXTT0=
EXTT1=
EXTT2=
EXTT3=
EXTT4=
EXTT5=
EXTT6=
EXTT7=
EXTT8=
EXTT9=
EXTT10=
PLAYORDER=
